<mxfile host="65bd71144e">
    <diagram id="cImyPBGmYUDd1Qoultqg" name="Page-1">
        <mxGraphModel dx="2360" dy="906" grid="1" gridSize="10" guides="1" tooltips="1" connect="1" arrows="1" fold="1" page="1" pageScale="1" pageWidth="850" pageHeight="1100" math="0" shadow="0">
            <root>
                <mxCell id="0"/>
                <mxCell id="1" parent="0"/>
                <mxCell id="2" value="mgr init" style="shape=umlFrame;whiteSpace=wrap;html=1;width=120;height=30;boundedLbl=1;verticalAlign=middle;align=left;spacingLeft=5;" vertex="1" parent="1">
                    <mxGeometry x="-10" y="150" width="850" height="640" as="geometry"/>
                </mxCell>
                <mxCell id="9" value="ceph_mgr" style="shape=umlLifeline;perimeter=lifelinePerimeter;whiteSpace=wrap;html=1;container=1;collapsible=0;recursiveResize=0;outlineConnect=0;" vertex="1" parent="1">
                    <mxGeometry x="100" y="250" width="100" height="300" as="geometry"/>
                </mxCell>
                <mxCell id="14" value="" style="html=1;points=[];perimeter=orthogonalPerimeter;" vertex="1" parent="9">
                    <mxGeometry x="40" y="125" width="10" height="145" as="geometry"/>
                </mxCell>
                <mxCell id="15" value="main" style="html=1;verticalAlign=bottom;startArrow=oval;endArrow=block;startSize=8;" edge="1" target="14" parent="9">
                    <mxGeometry relative="1" as="geometry">
                        <mxPoint x="-20" y="125" as="sourcePoint"/>
                    </mxGeometry>
                </mxCell>
                <mxCell id="10" value="&lt;div style=&quot;color: rgb(212, 212, 212); background-color: rgb(30, 30, 30); font-family: &amp;quot;Droid Sans Mono&amp;quot;, monospace, monospace, &amp;quot;Droid Sans Fallback&amp;quot;; font-size: 14px; line-height: 19px;&quot;&gt;MgrStandby&lt;/div&gt;" style="shape=umlLifeline;perimeter=lifelinePerimeter;whiteSpace=wrap;html=1;container=1;collapsible=0;recursiveResize=0;outlineConnect=0;lifelineDashed=0;" vertex="1" parent="1">
                    <mxGeometry x="250" y="250" width="100" height="460" as="geometry"/>
                </mxCell>
                <mxCell id="16" value="" style="html=1;points=[];perimeter=orthogonalPerimeter;" vertex="1" parent="10">
                    <mxGeometry x="40" y="140" width="10" height="130" as="geometry"/>
                </mxCell>
                <mxCell id="12" value="&lt;div style=&quot;color: rgb(212, 212, 212); background-color: rgb(30, 30, 30); font-family: &amp;quot;Droid Sans Mono&amp;quot;, monospace, monospace, &amp;quot;Droid Sans Fallback&amp;quot;; font-size: 14px; line-height: 19px;&quot;&gt;&lt;div style=&quot;font-family: &amp;quot;Droid Sans Mono&amp;quot;, monospace, monospace, &amp;quot;Droid Sans Fallback&amp;quot;; line-height: 19px;&quot;&gt;&lt;div style=&quot;font-family: &amp;quot;Droid Sans Mono&amp;quot;, monospace, monospace, &amp;quot;Droid Sans Fallback&amp;quot;; line-height: 19px;&quot;&gt;MonClient&lt;/div&gt;&lt;/div&gt;&lt;/div&gt;" style="shape=umlLifeline;perimeter=lifelinePerimeter;whiteSpace=wrap;html=1;container=1;collapsible=0;recursiveResize=0;outlineConnect=0;lifelineDashed=0;" vertex="1" parent="1">
                    <mxGeometry x="400" y="250" width="100" height="300" as="geometry"/>
                </mxCell>
                <mxCell id="18" value="" style="html=1;points=[];perimeter=orthogonalPerimeter;" vertex="1" parent="12">
                    <mxGeometry x="40" y="160" width="10" height="80" as="geometry"/>
                </mxCell>
                <mxCell id="17" value="init" style="html=1;verticalAlign=bottom;startArrow=oval;endArrow=block;startSize=8;" edge="1" target="16" parent="1">
                    <mxGeometry relative="1" as="geometry">
                        <mxPoint x="150" y="390" as="sourcePoint"/>
                    </mxGeometry>
                </mxCell>
                <mxCell id="19" value="sub_want(&quot;mgrmap&quot;,0,0)" style="html=1;verticalAlign=bottom;startArrow=oval;endArrow=block;startSize=8;exitX=0.5;exitY=0.533;exitDx=0;exitDy=0;exitPerimeter=0;" edge="1" target="18" parent="1" source="10">
                    <mxGeometry relative="1" as="geometry">
                        <mxPoint x="330" y="410" as="sourcePoint"/>
                        <mxPoint as="offset"/>
                    </mxGeometry>
                </mxCell>
                <mxCell id="20" value="&lt;div style=&quot;color: rgb(212, 212, 212); background-color: rgb(30, 30, 30); font-family: &amp;quot;Droid Sans Mono&amp;quot;, monospace, monospace, &amp;quot;Droid Sans Fallback&amp;quot;; font-size: 14px; line-height: 19px;&quot;&gt;&lt;div style=&quot;font-family: &amp;quot;Droid Sans Mono&amp;quot;, monospace, monospace, &amp;quot;Droid Sans Fallback&amp;quot;; line-height: 19px;&quot;&gt;&lt;span style=&quot;color: #4ec9b0;&quot;&gt;MgrClient&lt;/span&gt;&lt;/div&gt;&lt;/div&gt;" style="shape=umlLifeline;perimeter=lifelinePerimeter;whiteSpace=wrap;html=1;container=1;collapsible=0;recursiveResize=0;outlineConnect=0;" vertex="1" parent="1">
                    <mxGeometry x="530" y="250" width="100" height="300" as="geometry"/>
                </mxCell>
                <mxCell id="30" value="" style="html=1;points=[];perimeter=orthogonalPerimeter;" vertex="1" parent="20">
                    <mxGeometry x="60" y="200" width="10" height="40" as="geometry"/>
                </mxCell>
                <mxCell id="31" value="&lt;div style=&quot;color: rgb(212, 212, 212); background-color: rgb(30, 30, 30); font-family: &amp;quot;Droid Sans Mono&amp;quot;, monospace, monospace, &amp;quot;Droid Sans Fallback&amp;quot;; font-size: 14px; line-height: 19px;&quot;&gt;&lt;span style=&quot;color: #dcdcaa;&quot;&gt;handle_mgr_map&lt;/span&gt;&lt;/div&gt;" style="edgeStyle=orthogonalEdgeStyle;html=1;align=left;spacingLeft=2;endArrow=block;rounded=0;entryX=1.2;entryY=0.7;entryDx=0;entryDy=0;entryPerimeter=0;" edge="1" target="30" parent="20">
                    <mxGeometry relative="1" as="geometry">
                        <mxPoint x="70" y="200" as="sourcePoint"/>
                        <Array as="points">
                            <mxPoint x="100" y="200"/>
                            <mxPoint x="100" y="228"/>
                        </Array>
                        <mxPoint x="250" y="230" as="targetPoint"/>
                    </mxGeometry>
                </mxCell>
                <mxCell id="23" value="" style="html=1;points=[];perimeter=orthogonalPerimeter;" vertex="1" parent="1">
                    <mxGeometry x="580" y="410" width="10" height="80" as="geometry"/>
                </mxCell>
                <mxCell id="24" value="&lt;div style=&quot;color: rgb(212, 212, 212); background-color: rgb(30, 30, 30); font-family: &amp;quot;Droid Sans Mono&amp;quot;, monospace, monospace, &amp;quot;Droid Sans Fallback&amp;quot;; font-size: 14px; line-height: 19px;&quot;&gt;&lt;span style=&quot;color: #dcdcaa;&quot;&gt;ms_dispatch2&lt;/span&gt;&lt;/div&gt;" style="html=1;verticalAlign=bottom;endArrow=block;entryX=0;entryY=0;" edge="1" target="23" parent="1">
                    <mxGeometry relative="1" as="geometry">
                        <mxPoint x="680" y="410" as="sourcePoint"/>
                    </mxGeometry>
                </mxCell>
                <mxCell id="26" value="return" style="html=1;verticalAlign=bottom;endArrow=open;dashed=1;endSize=8;" edge="1" parent="1" source="18" target="16">
                    <mxGeometry relative="1" as="geometry">
                        <mxPoint x="510" y="486" as="targetPoint"/>
                        <mxPoint x="560" y="480" as="sourcePoint"/>
                        <Array as="points">
                            <mxPoint x="370" y="490"/>
                        </Array>
                    </mxGeometry>
                </mxCell>
                <mxCell id="27" value="return" style="html=1;verticalAlign=bottom;endArrow=open;dashed=1;endSize=8;" edge="1" parent="1" source="16" target="14">
                    <mxGeometry relative="1" as="geometry">
                        <mxPoint x="310" y="500" as="targetPoint"/>
                        <mxPoint x="290" y="520" as="sourcePoint"/>
                        <Array as="points">
                            <mxPoint x="270" y="500"/>
                            <mxPoint x="240" y="500"/>
                        </Array>
                    </mxGeometry>
                </mxCell>
            </root>
        </mxGraphModel>
    </diagram>
</mxfile>